<?xml version="1.0" encoding="UTF-8"?>
<svg xmlns="http://www.w3.org/2000/svg" xmlns:xlink="http://www.w3.org/1999/xlink" width="640pt" height="512pt" viewBox="0 0 640 512" version="1.1">
<g id="surface381">
<path style=" stroke:none;fill-rule:nonzero;fill:rgb(69.411767%,6.666667%,41.960785%);fill-opacity:1;" d="M 128 352 L 32 352 C 14.328125 352 0 366.328125 0 384 L 0 480 C 0 497.671875 14.328125 512 32 512 L 128 512 C 145.671875 512 160 497.671875 160 480 L 160 384 C 160 366.328125 145.671875 352 128 352 Z M 104 272 L 296 272 L 296 320 L 344 320 L 344 272 L 536 272 L 536 320 L 584 320 L 584 262.410156 C 584 241.238281 566.769531 224 545.589844 224 L 344 224 L 344 160 L 384 160 C 401.671875 160 416 145.671875 416 128 L 416 32 C 416 14.328125 401.671875 0 384 0 L 256 0 C 238.328125 0 224 14.328125 224 32 L 224 128 C 224 145.671875 238.328125 160 256 160 L 296 160 L 296 224 L 94.410156 224 C 73.230469 224 56 241.230469 56 262.410156 L 56 320 L 104 320 Z M 368 352 L 272 352 C 254.328125 352 240 366.328125 240 384 L 240 480 C 240 497.671875 254.328125 512 272 512 L 368 512 C 385.671875 512 400 497.671875 400 480 L 400 384 C 400 366.328125 385.671875 352 368 352 Z M 608 352 L 512 352 C 494.328125 352 480 366.328125 480 384 L 480 480 C 480 497.671875 494.328125 512 512 512 L 608 512 C 625.671875 512 640 497.671875 640 480 L 640 384 C 640 366.328125 625.671875 352 608 352 Z M 608 352 "/>
</g>
</svg>
